<mxfile host="Electron" modified="2024-07-16T12:24:39.148Z" agent="Mozilla/5.0 (Windows NT 10.0; Win64; x64) AppleWebKit/537.36 (KHTML, like Gecko) draw.io/24.6.4 Chrome/124.0.6367.207 Electron/30.0.6 Safari/537.36" etag="Sx7ye5nLX0tI-M-hzVvd" version="24.6.4" type="device">
  <diagram name="Page-1" id="__MFM_pYD9NSd5JV3cW1">
    <mxGraphModel dx="1050" dy="621" grid="1" gridSize="10" guides="1" tooltips="1" connect="1" arrows="1" fold="1" page="1" pageScale="1" pageWidth="850" pageHeight="1100" math="0" shadow="0">
      <root>
        <mxCell id="0" />
        <mxCell id="1" parent="0" />
        <mxCell id="CzJnRWaUy9JEsIH0mckg-1" value="ward" style="rounded=1;arcSize=10;whiteSpace=wrap;html=1;align=center;" vertex="1" parent="1">
          <mxGeometry x="120" y="160" width="100" height="40" as="geometry" />
        </mxCell>
        <mxCell id="CzJnRWaUy9JEsIH0mckg-2" value="&lt;u&gt;ward_id&lt;/u&gt;" style="ellipse;whiteSpace=wrap;html=1;align=center;" vertex="1" parent="1">
          <mxGeometry x="90" y="100" width="80" height="30" as="geometry" />
        </mxCell>
        <mxCell id="CzJnRWaUy9JEsIH0mckg-3" value="Name" style="ellipse;whiteSpace=wrap;html=1;align=center;" vertex="1" parent="1">
          <mxGeometry x="170" y="110" width="70" height="30" as="geometry" />
        </mxCell>
        <mxCell id="CzJnRWaUy9JEsIH0mckg-4" value="" style="endArrow=none;html=1;rounded=0;entryX=0.655;entryY=0.987;entryDx=0;entryDy=0;entryPerimeter=0;exitX=0.25;exitY=0;exitDx=0;exitDy=0;" edge="1" parent="1" source="CzJnRWaUy9JEsIH0mckg-1" target="CzJnRWaUy9JEsIH0mckg-2">
          <mxGeometry relative="1" as="geometry">
            <mxPoint x="20" y="140" as="sourcePoint" />
            <mxPoint x="180" y="140" as="targetPoint" />
          </mxGeometry>
        </mxCell>
        <mxCell id="CzJnRWaUy9JEsIH0mckg-5" value="" style="endArrow=none;html=1;rounded=0;" edge="1" parent="1" source="CzJnRWaUy9JEsIH0mckg-3" target="CzJnRWaUy9JEsIH0mckg-1">
          <mxGeometry relative="1" as="geometry">
            <mxPoint x="240" y="140" as="sourcePoint" />
            <mxPoint x="400" y="140" as="targetPoint" />
          </mxGeometry>
        </mxCell>
        <mxCell id="CzJnRWaUy9JEsIH0mckg-6" value="patient" style="rounded=1;arcSize=10;whiteSpace=wrap;html=1;align=center;" vertex="1" parent="1">
          <mxGeometry x="550" y="150" width="100" height="40" as="geometry" />
        </mxCell>
        <mxCell id="CzJnRWaUy9JEsIH0mckg-7" value="&lt;u&gt;patient_id&lt;/u&gt;" style="ellipse;whiteSpace=wrap;html=1;align=center;" vertex="1" parent="1">
          <mxGeometry x="600" y="70" width="80" height="30" as="geometry" />
        </mxCell>
        <mxCell id="CzJnRWaUy9JEsIH0mckg-8" value="name" style="ellipse;whiteSpace=wrap;html=1;align=center;" vertex="1" parent="1">
          <mxGeometry x="690" y="80" width="70" height="30" as="geometry" />
        </mxCell>
        <mxCell id="CzJnRWaUy9JEsIH0mckg-9" value="&lt;font style=&quot;font-size: 11px;&quot;&gt;Date_of_Birth&lt;/font&gt;" style="ellipse;whiteSpace=wrap;html=1;align=center;" vertex="1" parent="1">
          <mxGeometry x="710" y="130" width="80" height="40" as="geometry" />
        </mxCell>
        <mxCell id="CzJnRWaUy9JEsIH0mckg-10" value="" style="endArrow=none;html=1;rounded=0;" edge="1" parent="1" source="CzJnRWaUy9JEsIH0mckg-6" target="CzJnRWaUy9JEsIH0mckg-7">
          <mxGeometry relative="1" as="geometry">
            <mxPoint x="430" y="110" as="sourcePoint" />
            <mxPoint x="590" y="110" as="targetPoint" />
          </mxGeometry>
        </mxCell>
        <mxCell id="CzJnRWaUy9JEsIH0mckg-11" value="" style="endArrow=none;html=1;rounded=0;" edge="1" parent="1" source="CzJnRWaUy9JEsIH0mckg-6" target="CzJnRWaUy9JEsIH0mckg-8">
          <mxGeometry relative="1" as="geometry">
            <mxPoint x="440" y="149.5" as="sourcePoint" />
            <mxPoint x="600" y="149.5" as="targetPoint" />
          </mxGeometry>
        </mxCell>
        <mxCell id="CzJnRWaUy9JEsIH0mckg-12" value="" style="endArrow=none;html=1;rounded=0;" edge="1" parent="1" source="CzJnRWaUy9JEsIH0mckg-6" target="CzJnRWaUy9JEsIH0mckg-9">
          <mxGeometry relative="1" as="geometry">
            <mxPoint x="440" y="190" as="sourcePoint" />
            <mxPoint x="600" y="190" as="targetPoint" />
          </mxGeometry>
        </mxCell>
        <mxCell id="CzJnRWaUy9JEsIH0mckg-13" value="&lt;span id=&quot;docs-internal-guid-eacf7ad2-7fff-60a9-5a3a-47362cbd52f3&quot;&gt;&lt;span style=&quot;font-size: 16px; font-family: Arial, sans-serif; background-color: transparent; font-variant-numeric: normal; font-variant-east-asian: normal; font-variant-alternates: normal; font-variant-position: normal; vertical-align: baseline; white-space-collapse: preserve;&quot;&gt;Consultants &lt;/span&gt;&lt;/span&gt;" style="rounded=1;arcSize=10;whiteSpace=wrap;html=1;align=center;" vertex="1" parent="1">
          <mxGeometry x="570" y="330" width="100" height="40" as="geometry" />
        </mxCell>
        <mxCell id="CzJnRWaUy9JEsIH0mckg-14" value="&lt;span id=&quot;docs-internal-guid-d344cec4-7fff-9ac6-d888-06b776bf27fb&quot;&gt;&lt;span style=&quot;font-size: 13px; font-family: Arial, sans-serif; background-color: transparent; font-variant-numeric: normal; font-variant-east-asian: normal; font-variant-alternates: normal; font-variant-position: normal; vertical-align: baseline; white-space-collapse: preserve;&quot;&gt;&lt;u&gt;Consultant_id&lt;/u&gt;&lt;/span&gt;&lt;/span&gt;" style="ellipse;whiteSpace=wrap;html=1;align=center;" vertex="1" parent="1">
          <mxGeometry x="725" y="270" width="90" height="40" as="geometry" />
        </mxCell>
        <mxCell id="CzJnRWaUy9JEsIH0mckg-15" value="" style="endArrow=none;html=1;rounded=0;exitX=1;exitY=0.25;exitDx=0;exitDy=0;" edge="1" parent="1" source="CzJnRWaUy9JEsIH0mckg-13" target="CzJnRWaUy9JEsIH0mckg-14">
          <mxGeometry relative="1" as="geometry">
            <mxPoint x="710" y="320" as="sourcePoint" />
            <mxPoint x="870" y="320" as="targetPoint" />
          </mxGeometry>
        </mxCell>
        <mxCell id="CzJnRWaUy9JEsIH0mckg-16" value="&lt;span id=&quot;docs-internal-guid-122abc81-7fff-eb0d-f4f5-8ccf0b298e59&quot;&gt;&lt;span style=&quot;font-family: Arial, sans-serif; background-color: transparent; font-variant-numeric: normal; font-variant-east-asian: normal; font-variant-alternates: normal; font-variant-position: normal; vertical-align: baseline; white-space-collapse: preserve;&quot;&gt;&lt;font style=&quot;font-size: 15px;&quot;&gt;Name&lt;/font&gt;&lt;/span&gt;&lt;/span&gt;" style="ellipse;whiteSpace=wrap;html=1;align=center;" vertex="1" parent="1">
          <mxGeometry x="730" y="330" width="80" height="30" as="geometry" />
        </mxCell>
        <mxCell id="CzJnRWaUy9JEsIH0mckg-17" value="" style="endArrow=none;html=1;rounded=0;" edge="1" parent="1" source="CzJnRWaUy9JEsIH0mckg-13" target="CzJnRWaUy9JEsIH0mckg-16">
          <mxGeometry relative="1" as="geometry">
            <mxPoint x="480" y="370" as="sourcePoint" />
            <mxPoint x="640" y="370" as="targetPoint" />
          </mxGeometry>
        </mxCell>
        <mxCell id="CzJnRWaUy9JEsIH0mckg-18" value="&lt;span id=&quot;docs-internal-guid-b305e740-7fff-933b-80bf-fda5cc03c669&quot;&gt;&lt;span style=&quot;font-size: 17px; font-family: Arial, sans-serif; background-color: transparent; font-variant-numeric: normal; font-variant-east-asian: normal; font-variant-alternates: normal; font-variant-position: normal; vertical-align: baseline; white-space-collapse: preserve;&quot;&gt;nurse &lt;/span&gt;&lt;/span&gt;" style="rounded=1;arcSize=10;whiteSpace=wrap;html=1;align=center;" vertex="1" parent="1">
          <mxGeometry x="140" y="360" width="100" height="40" as="geometry" />
        </mxCell>
        <mxCell id="CzJnRWaUy9JEsIH0mckg-19" value="name" style="ellipse;whiteSpace=wrap;html=1;align=center;" vertex="1" parent="1">
          <mxGeometry x="20" y="330" width="80" height="30" as="geometry" />
        </mxCell>
        <mxCell id="CzJnRWaUy9JEsIH0mckg-20" value="" style="endArrow=none;html=1;rounded=0;" edge="1" parent="1" source="CzJnRWaUy9JEsIH0mckg-19" target="CzJnRWaUy9JEsIH0mckg-18">
          <mxGeometry relative="1" as="geometry">
            <mxPoint x="100" y="350" as="sourcePoint" />
            <mxPoint x="260" y="350" as="targetPoint" />
          </mxGeometry>
        </mxCell>
        <mxCell id="CzJnRWaUy9JEsIH0mckg-21" value="&lt;u&gt;number&lt;/u&gt;" style="ellipse;whiteSpace=wrap;html=1;align=center;" vertex="1" parent="1">
          <mxGeometry x="10" y="370" width="90" height="30" as="geometry" />
        </mxCell>
        <mxCell id="CzJnRWaUy9JEsIH0mckg-22" value="address" style="ellipse;whiteSpace=wrap;html=1;align=center;" vertex="1" parent="1">
          <mxGeometry x="15" y="420" width="80" height="30" as="geometry" />
        </mxCell>
        <mxCell id="CzJnRWaUy9JEsIH0mckg-23" value="" style="endArrow=none;html=1;rounded=0;" edge="1" parent="1" source="CzJnRWaUy9JEsIH0mckg-21" target="CzJnRWaUy9JEsIH0mckg-18">
          <mxGeometry relative="1" as="geometry">
            <mxPoint x="120" y="400" as="sourcePoint" />
            <mxPoint x="280" y="400" as="targetPoint" />
          </mxGeometry>
        </mxCell>
        <mxCell id="CzJnRWaUy9JEsIH0mckg-24" value="" style="endArrow=none;html=1;rounded=0;" edge="1" parent="1" source="CzJnRWaUy9JEsIH0mckg-22" target="CzJnRWaUy9JEsIH0mckg-18">
          <mxGeometry relative="1" as="geometry">
            <mxPoint x="130" y="430" as="sourcePoint" />
            <mxPoint x="290" y="430" as="targetPoint" />
          </mxGeometry>
        </mxCell>
        <mxCell id="CzJnRWaUy9JEsIH0mckg-25" value="drug" style="rounded=1;arcSize=10;whiteSpace=wrap;html=1;align=center;" vertex="1" parent="1">
          <mxGeometry x="350" y="420" width="100" height="40" as="geometry" />
        </mxCell>
        <mxCell id="CzJnRWaUy9JEsIH0mckg-26" value="&lt;u&gt;code_number&lt;/u&gt;" style="ellipse;whiteSpace=wrap;html=1;align=center;" vertex="1" parent="1">
          <mxGeometry x="290" y="510" width="100" height="40" as="geometry" />
        </mxCell>
        <mxCell id="CzJnRWaUy9JEsIH0mckg-27" value="brand_name" style="ellipse;shape=doubleEllipse;margin=3;whiteSpace=wrap;html=1;align=center;" vertex="1" parent="1">
          <mxGeometry x="420" y="520" width="100" height="40" as="geometry" />
        </mxCell>
        <mxCell id="CzJnRWaUy9JEsIH0mckg-28" value="" style="endArrow=none;html=1;rounded=0;" edge="1" parent="1" source="CzJnRWaUy9JEsIH0mckg-26" target="CzJnRWaUy9JEsIH0mckg-25">
          <mxGeometry relative="1" as="geometry">
            <mxPoint x="480" y="440" as="sourcePoint" />
            <mxPoint x="640" y="440" as="targetPoint" />
          </mxGeometry>
        </mxCell>
        <mxCell id="CzJnRWaUy9JEsIH0mckg-29" value="" style="endArrow=none;html=1;rounded=0;" edge="1" parent="1" source="CzJnRWaUy9JEsIH0mckg-25" target="CzJnRWaUy9JEsIH0mckg-27">
          <mxGeometry relative="1" as="geometry">
            <mxPoint x="340" y="300" as="sourcePoint" />
            <mxPoint x="500" y="300" as="targetPoint" />
          </mxGeometry>
        </mxCell>
        <mxCell id="CzJnRWaUy9JEsIH0mckg-30" value="host" style="shape=rhombus;perimeter=rhombusPerimeter;whiteSpace=wrap;html=1;align=center;" vertex="1" parent="1">
          <mxGeometry x="340" y="150" width="100" height="40" as="geometry" />
        </mxCell>
        <mxCell id="CzJnRWaUy9JEsIH0mckg-33" value="1" style="text;html=1;align=center;verticalAlign=middle;resizable=0;points=[];autosize=1;strokeColor=none;fillColor=none;" vertex="1" parent="1">
          <mxGeometry x="215" y="148" width="30" height="30" as="geometry" />
        </mxCell>
        <mxCell id="CzJnRWaUy9JEsIH0mckg-34" value="" style="endArrow=none;html=1;rounded=0;" edge="1" parent="1" source="CzJnRWaUy9JEsIH0mckg-1" target="CzJnRWaUy9JEsIH0mckg-30">
          <mxGeometry relative="1" as="geometry">
            <mxPoint x="250" y="160" as="sourcePoint" />
            <mxPoint x="410" y="160" as="targetPoint" />
          </mxGeometry>
        </mxCell>
        <mxCell id="CzJnRWaUy9JEsIH0mckg-35" value="" style="shape=link;html=1;rounded=0;" edge="1" parent="1" source="CzJnRWaUy9JEsIH0mckg-30" target="CzJnRWaUy9JEsIH0mckg-6">
          <mxGeometry relative="1" as="geometry">
            <mxPoint x="440" y="180" as="sourcePoint" />
            <mxPoint x="600" y="180" as="targetPoint" />
          </mxGeometry>
        </mxCell>
        <mxCell id="CzJnRWaUy9JEsIH0mckg-36" value="N" style="resizable=0;html=1;whiteSpace=wrap;align=right;verticalAlign=bottom;" connectable="0" vertex="1" parent="CzJnRWaUy9JEsIH0mckg-35">
          <mxGeometry x="1" relative="1" as="geometry" />
        </mxCell>
        <mxCell id="CzJnRWaUy9JEsIH0mckg-38" value="assign" style="shape=rhombus;perimeter=rhombusPerimeter;whiteSpace=wrap;html=1;align=center;" vertex="1" parent="1">
          <mxGeometry x="610" y="240" width="60" height="50" as="geometry" />
        </mxCell>
        <mxCell id="CzJnRWaUy9JEsIH0mckg-39" value="1" style="text;html=1;align=center;verticalAlign=middle;resizable=0;points=[];autosize=1;strokeColor=none;fillColor=none;" vertex="1" parent="1">
          <mxGeometry x="635" y="298" width="30" height="30" as="geometry" />
        </mxCell>
        <mxCell id="CzJnRWaUy9JEsIH0mckg-40" value="M" style="text;html=1;align=center;verticalAlign=middle;resizable=0;points=[];autosize=1;strokeColor=none;fillColor=none;" vertex="1" parent="1">
          <mxGeometry x="610" y="190" width="30" height="30" as="geometry" />
        </mxCell>
        <mxCell id="CzJnRWaUy9JEsIH0mckg-41" value="" style="endArrow=none;html=1;rounded=0;" edge="1" parent="1" target="CzJnRWaUy9JEsIH0mckg-38">
          <mxGeometry relative="1" as="geometry">
            <mxPoint x="660" y="330" as="sourcePoint" />
            <mxPoint x="690" y="300" as="targetPoint" />
          </mxGeometry>
        </mxCell>
        <mxCell id="CzJnRWaUy9JEsIH0mckg-44" value="" style="shape=link;html=1;rounded=0;" edge="1" parent="1" source="CzJnRWaUy9JEsIH0mckg-6" target="CzJnRWaUy9JEsIH0mckg-38">
          <mxGeometry relative="1" as="geometry">
            <mxPoint x="550" y="220" as="sourcePoint" />
            <mxPoint x="710" y="220" as="targetPoint" />
          </mxGeometry>
        </mxCell>
        <mxCell id="CzJnRWaUy9JEsIH0mckg-46" value="examine" style="shape=rhombus;perimeter=rhombusPerimeter;whiteSpace=wrap;html=1;align=center;" vertex="1" parent="1">
          <mxGeometry x="520" y="240" width="60" height="50" as="geometry" />
        </mxCell>
        <mxCell id="CzJnRWaUy9JEsIH0mckg-47" value="M" style="text;html=1;align=center;verticalAlign=middle;resizable=0;points=[];autosize=1;strokeColor=none;fillColor=none;" vertex="1" parent="1">
          <mxGeometry x="570" y="310" width="30" height="30" as="geometry" />
        </mxCell>
        <mxCell id="CzJnRWaUy9JEsIH0mckg-48" value="M" style="text;html=1;align=center;verticalAlign=middle;resizable=0;points=[];autosize=1;strokeColor=none;fillColor=none;" vertex="1" parent="1">
          <mxGeometry x="585" y="190" width="30" height="30" as="geometry" />
        </mxCell>
        <mxCell id="CzJnRWaUy9JEsIH0mckg-49" value="" style="endArrow=none;html=1;rounded=0;" edge="1" parent="1">
          <mxGeometry relative="1" as="geometry">
            <mxPoint x="560" y="250" as="sourcePoint" />
            <mxPoint x="600.0036842105262" y="192" as="targetPoint" />
          </mxGeometry>
        </mxCell>
        <mxCell id="CzJnRWaUy9JEsIH0mckg-51" value="" style="endArrow=none;html=1;rounded=0;" edge="1" parent="1" source="CzJnRWaUy9JEsIH0mckg-13" target="CzJnRWaUy9JEsIH0mckg-46">
          <mxGeometry relative="1" as="geometry">
            <mxPoint x="340" y="300" as="sourcePoint" />
            <mxPoint x="500" y="300" as="targetPoint" />
          </mxGeometry>
        </mxCell>
        <mxCell id="CzJnRWaUy9JEsIH0mckg-52" value="giving_drugs" style="shape=rhombus;perimeter=rhombusPerimeter;whiteSpace=wrap;html=1;align=center;" vertex="1" parent="1">
          <mxGeometry x="320" y="283" width="90" height="60" as="geometry" />
        </mxCell>
        <mxCell id="CzJnRWaUy9JEsIH0mckg-54" value="" style="endArrow=none;html=1;rounded=0;exitX=0.5;exitY=1;exitDx=0;exitDy=0;" edge="1" parent="1" source="CzJnRWaUy9JEsIH0mckg-52" target="CzJnRWaUy9JEsIH0mckg-25">
          <mxGeometry relative="1" as="geometry">
            <mxPoint x="345" y="384.5" as="sourcePoint" />
            <mxPoint x="505" y="384.5" as="targetPoint" />
          </mxGeometry>
        </mxCell>
        <mxCell id="CzJnRWaUy9JEsIH0mckg-55" value="" style="endArrow=none;html=1;rounded=0;" edge="1" parent="1" source="CzJnRWaUy9JEsIH0mckg-18" target="CzJnRWaUy9JEsIH0mckg-52">
          <mxGeometry relative="1" as="geometry">
            <mxPoint x="190" y="410" as="sourcePoint" />
            <mxPoint x="350" y="410" as="targetPoint" />
          </mxGeometry>
        </mxCell>
        <mxCell id="CzJnRWaUy9JEsIH0mckg-56" value="" style="endArrow=none;html=1;rounded=0;" edge="1" parent="1" source="CzJnRWaUy9JEsIH0mckg-52" target="CzJnRWaUy9JEsIH0mckg-6">
          <mxGeometry relative="1" as="geometry">
            <mxPoint x="270" y="250" as="sourcePoint" />
            <mxPoint x="430" y="250" as="targetPoint" />
          </mxGeometry>
        </mxCell>
        <mxCell id="CzJnRWaUy9JEsIH0mckg-57" value="&lt;span id=&quot;docs-internal-guid-e9acc4fe-7fff-a41f-3005-9e1ea52a0c5b&quot;&gt;&lt;span style=&quot;font-family: Arial, sans-serif; background-color: transparent; font-variant-numeric: normal; font-variant-east-asian: normal; font-variant-alternates: normal; font-variant-position: normal; vertical-align: baseline; white-space-collapse: preserve;&quot;&gt;&lt;font style=&quot;font-size: 11px;&quot;&gt;supervision &lt;/font&gt;&lt;/span&gt;&lt;/span&gt;" style="shape=rhombus;perimeter=rhombusPerimeter;whiteSpace=wrap;html=1;align=center;" vertex="1" parent="1">
          <mxGeometry x="170" y="240" width="70" height="60" as="geometry" />
        </mxCell>
        <mxCell id="CzJnRWaUy9JEsIH0mckg-58" value="1" style="text;html=1;align=center;verticalAlign=middle;resizable=0;points=[];autosize=1;strokeColor=none;fillColor=none;" vertex="1" parent="1">
          <mxGeometry x="170" y="200" width="30" height="30" as="geometry" />
        </mxCell>
        <mxCell id="CzJnRWaUy9JEsIH0mckg-59" value="1" style="text;html=1;align=center;verticalAlign=middle;resizable=0;points=[];autosize=1;strokeColor=none;fillColor=none;" vertex="1" parent="1">
          <mxGeometry x="185" y="330" width="30" height="30" as="geometry" />
        </mxCell>
        <mxCell id="CzJnRWaUy9JEsIH0mckg-60" value="" style="shape=link;html=1;rounded=0;exitX=0.5;exitY=1;exitDx=0;exitDy=0;" edge="1" parent="1" source="CzJnRWaUy9JEsIH0mckg-1" target="CzJnRWaUy9JEsIH0mckg-57">
          <mxGeometry relative="1" as="geometry">
            <mxPoint x="170" y="230" as="sourcePoint" />
            <mxPoint x="330" y="230" as="targetPoint" />
          </mxGeometry>
        </mxCell>
        <mxCell id="CzJnRWaUy9JEsIH0mckg-64" value="" style="endArrow=none;html=1;rounded=0;" edge="1" parent="1" source="CzJnRWaUy9JEsIH0mckg-18" target="CzJnRWaUy9JEsIH0mckg-57">
          <mxGeometry relative="1" as="geometry">
            <mxPoint x="340" y="310" as="sourcePoint" />
            <mxPoint x="500" y="310" as="targetPoint" />
          </mxGeometry>
        </mxCell>
        <mxCell id="CzJnRWaUy9JEsIH0mckg-65" value="serve" style="shape=rhombus;perimeter=rhombusPerimeter;whiteSpace=wrap;html=1;align=center;" vertex="1" parent="1">
          <mxGeometry x="80" y="240" width="70" height="50" as="geometry" />
        </mxCell>
        <mxCell id="CzJnRWaUy9JEsIH0mckg-66" value="1" style="text;html=1;align=center;verticalAlign=middle;resizable=0;points=[];autosize=1;strokeColor=none;fillColor=none;" vertex="1" parent="1">
          <mxGeometry x="95" y="188" width="30" height="30" as="geometry" />
        </mxCell>
        <mxCell id="CzJnRWaUy9JEsIH0mckg-67" value="M" style="text;html=1;align=center;verticalAlign=middle;resizable=0;points=[];autosize=1;strokeColor=none;fillColor=none;" vertex="1" parent="1">
          <mxGeometry x="125" y="328" width="30" height="30" as="geometry" />
        </mxCell>
        <mxCell id="CzJnRWaUy9JEsIH0mckg-68" value="" style="shape=link;html=1;rounded=0;" edge="1" parent="1" source="CzJnRWaUy9JEsIH0mckg-18" target="CzJnRWaUy9JEsIH0mckg-65">
          <mxGeometry relative="1" as="geometry">
            <mxPoint x="340" y="310" as="sourcePoint" />
            <mxPoint x="500" y="310" as="targetPoint" />
          </mxGeometry>
        </mxCell>
        <mxCell id="CzJnRWaUy9JEsIH0mckg-74" value="date" style="ellipse;whiteSpace=wrap;html=1;align=center;" vertex="1" parent="1">
          <mxGeometry x="280" y="255" width="60" height="20" as="geometry" />
        </mxCell>
        <mxCell id="CzJnRWaUy9JEsIH0mckg-75" value="Time" style="ellipse;whiteSpace=wrap;html=1;align=center;" vertex="1" parent="1">
          <mxGeometry x="380" y="240" width="60" height="20" as="geometry" />
        </mxCell>
        <mxCell id="CzJnRWaUy9JEsIH0mckg-76" value="Dossage" style="ellipse;whiteSpace=wrap;html=1;align=center;" vertex="1" parent="1">
          <mxGeometry x="315" y="218" width="70" height="22" as="geometry" />
        </mxCell>
        <mxCell id="CzJnRWaUy9JEsIH0mckg-78" value="" style="endArrow=none;html=1;rounded=0;" edge="1" parent="1" source="CzJnRWaUy9JEsIH0mckg-52" target="CzJnRWaUy9JEsIH0mckg-75">
          <mxGeometry relative="1" as="geometry">
            <mxPoint x="340" y="310" as="sourcePoint" />
            <mxPoint x="500" y="310" as="targetPoint" />
          </mxGeometry>
        </mxCell>
        <mxCell id="CzJnRWaUy9JEsIH0mckg-79" value="" style="endArrow=none;html=1;rounded=0;" edge="1" parent="1" source="CzJnRWaUy9JEsIH0mckg-76" target="CzJnRWaUy9JEsIH0mckg-52">
          <mxGeometry relative="1" as="geometry">
            <mxPoint x="340" y="310" as="sourcePoint" />
            <mxPoint x="500" y="310" as="targetPoint" />
          </mxGeometry>
        </mxCell>
        <mxCell id="CzJnRWaUy9JEsIH0mckg-80" value="" style="endArrow=none;html=1;rounded=0;" edge="1" parent="1" source="CzJnRWaUy9JEsIH0mckg-74" target="CzJnRWaUy9JEsIH0mckg-52">
          <mxGeometry relative="1" as="geometry">
            <mxPoint x="340" y="310" as="sourcePoint" />
            <mxPoint x="500" y="310" as="targetPoint" />
          </mxGeometry>
        </mxCell>
        <mxCell id="CzJnRWaUy9JEsIH0mckg-81" value="" style="endArrow=none;html=1;rounded=0;" edge="1" parent="1" source="CzJnRWaUy9JEsIH0mckg-1" target="CzJnRWaUy9JEsIH0mckg-65">
          <mxGeometry relative="1" as="geometry">
            <mxPoint x="340" y="310" as="sourcePoint" />
            <mxPoint x="500" y="310" as="targetPoint" />
          </mxGeometry>
        </mxCell>
      </root>
    </mxGraphModel>
  </diagram>
</mxfile>
